<svg xmlns="http://www.w3.org/2000/svg" xmlns:svg="http://www.w3.org/2000/svg" xmlns:xlink="http://www.w3.org/1999/xlink" id="svg8" width="311.448" height="311.448" version="1.1" viewBox="0 0 82.404 82.404"><defs id="defs2"><linearGradient id="linearGradient1577"><stop id="stop1567" offset="0" style="stop-color:#ffffe9;stop-opacity:1"/><stop style="stop-color:#fff;stop-opacity:.87790698" id="stop1569" offset=".005"/><stop style="stop-color:#fff;stop-opacity:0" id="stop1571" offset=".339"/><stop id="stop1573" offset=".51" style="stop-color:#001;stop-opacity:0"/><stop id="stop1575" offset="1" style="stop-color:#000;stop-opacity:.61627907"/></linearGradient><linearGradient id="linearGradient1505"><stop style="stop-color:#000;stop-opacity:1" id="stop1501" offset="0"/><stop id="stop1509" offset=".188" style="stop-color:#000;stop-opacity:.97558141"/><stop style="stop-color:#404040;stop-opacity:1" id="stop1511" offset=".279"/><stop id="stop1513" offset=".494" style="stop-color:#2f2f2f;stop-opacity:1"/><stop style="stop-color:#404040;stop-opacity:1" id="stop1515" offset=".523"/><stop id="stop1517" offset=".919" style="stop-color:#fff;stop-opacity:1"/><stop style="stop-color:#000;stop-opacity:1" id="stop1503" offset="1"/></linearGradient><linearGradient id="linearGradient1499"><stop id="stop1493" offset="0" style="stop-color:#000006;stop-opacity:0"/><stop style="stop-color:#000006;stop-opacity:1" id="stop1495" offset=".652"/><stop id="stop1497" offset="1" style="stop-color:#404040;stop-opacity:1"/></linearGradient><linearGradient id="linearGradient1437"><stop id="stop1427" offset="0" style="stop-color:#ffffe9;stop-opacity:1"/><stop style="stop-color:#fff;stop-opacity:.87790698" id="stop1429" offset=".067"/><stop style="stop-color:#fff;stop-opacity:0" id="stop1431" offset=".112"/><stop id="stop1433" offset=".447" style="stop-color:#001;stop-opacity:0"/><stop id="stop1435" offset="1" style="stop-color:#000;stop-opacity:.79302323"/></linearGradient><linearGradient id="linearGradient1373"><stop style="stop-color:#7f7f7f;stop-opacity:1" id="stop1369" offset="0"/><stop id="stop1377" offset=".68" style="stop-color:#00000d;stop-opacity:1"/><stop style="stop-color:#000001;stop-opacity:1" id="stop1371" offset="1"/></linearGradient><linearGradient id="linearGradient1262"><stop style="stop-color:#ffffe9;stop-opacity:1" id="stop1258" offset="0"/><stop id="stop1270" offset=".105" style="stop-color:#fff;stop-opacity:.87790698"/><stop id="stop1266" offset=".286" style="stop-color:#fff;stop-opacity:0"/><stop style="stop-color:#001;stop-opacity:0" id="stop1268" offset=".51"/><stop style="stop-color:#000;stop-opacity:.96511626" id="stop1260" offset="1"/></linearGradient><radialGradient id="radialGradient1264" cx="86.721" cy="71.811" r="8.682" fx="86.721" fy="71.811" gradientTransform="matrix(1.2214963,0,0,1.2214963,-19.384318,-14.2689)" gradientUnits="userSpaceOnUse" xlink:href="#linearGradient1262"/><radialGradient id="radialGradient1274" cx="86.721" cy="71.811" r="8.682" fx="86.721" fy="71.811" gradientTransform="matrix(1.2214963,0,0,1.2214963,6.0717257,-14.268903)" gradientUnits="userSpaceOnUse" xlink:href="#linearGradient1262"/><radialGradient id="radialGradient1280" cx="86.721" cy="71.811" r="8.682" fx="86.721" fy="71.811" gradientTransform="matrix(1.2877717,0,0,0.7415475,-12.657525,30.611331)" gradientUnits="userSpaceOnUse" xlink:href="#linearGradient1262"/><radialGradient id="radialGradient1307" cx="86.341" cy="72.137" r="8.682" fx="86.341" fy="72.137" gradientTransform="matrix(6.4124296,-0.2497315,0.1751368,1.2562632,-472.4637,-11.568913)" gradientUnits="userSpaceOnUse" xlink:href="#linearGradient1437"/><clipPath id="clipPath1311" clipPathUnits="userSpaceOnUse"><path id="path1313" d="m 83.113549,57.869134 c 30.081411,11.427402 59.751401,2.916031 59.751401,2.916031 0,0 -26.96169,-11.27517 -59.751401,-2.916031 z" style="fill:#007fff;fill-opacity:1;stroke:#000;stroke-width:.26458329px;stroke-linecap:butt;stroke-linejoin:miter;stroke-opacity:1"/></clipPath><radialGradient id="radialGradient1329" cx="79.535" cy="63.051" r="4.021" fx="79.535" fy="63.051" gradientTransform="matrix(2.9590352,0,0,3.048316,-160.45872,-130.22202)" gradientUnits="userSpaceOnUse" xlink:href="#linearGradient1499"/><radialGradient id="radialGradient1343" cx="83.29" cy="63.352" r="4.021" fx="83.29" fy="63.352" gradientTransform="matrix(-3.0011705,0,0,2.4225336,364.80229,-90.612231)" gradientUnits="userSpaceOnUse" xlink:href="#linearGradient1499"/><clipPath id="clipPath1361" clipPathUnits="userSpaceOnUse"><rect id="rect1363" width="30.719" height="40.283" x="102.243" y="70.376" style="opacity:.57700004;fill:#cbc406;fill-opacity:1;stroke:none;stroke-width:.26458332;stroke-linecap:square;stroke-miterlimit:4;stroke-dasharray:none;stroke-opacity:1"/></clipPath><clipPath id="clipPath1365" clipPathUnits="userSpaceOnUse"><rect style="opacity:.57700004;fill:#cbc406;fill-opacity:1;stroke:none;stroke-width:.26458332;stroke-linecap:square;stroke-miterlimit:4;stroke-dasharray:none;stroke-opacity:1" id="rect1367" width="30.719" height="40.283" x="71.524" y="70.376"/></clipPath><radialGradient id="radialGradient1375" cx="93.006" cy="93.765" r="9.139" fx="93.006" fy="93.765" gradientTransform="matrix(1.2841104,-0.97413441,0.60610974,0.79897781,-86.066716,106.61642)" gradientUnits="userSpaceOnUse" xlink:href="#linearGradient1373"/><clipPath id="clipPath1381" clipPathUnits="userSpaceOnUse"><path id="path1383" d="m 97.530662,83.33185 c -1.069554,-5.29e-4 -2.208662,0.04465 -3.353678,0.185672 -1.01e-4,0.05533 -0.0021,0.113072 0.0055,0.157154 0.359111,2.08052 6.686536,6.825565 8.050526,6.825565 1.36399,0 7.69202,-4.745045 8.05114,-6.825565 0.007,-0.04408 0.006,-0.101825 0.006,-0.157154 -1.14522,-0.141076 -2.28456,-0.186087 -3.35429,-0.185672 -1.90783,7.94e-4 -3.59503,0.146233 -4.70231,0.146233 -1.10727,0 -2.794477,-0.145471 -4.702311,-0.146233 z" style="fill:#7f7f7f;fill-opacity:1;stroke:#000;stroke-width:.26458332px;stroke-linecap:butt;stroke-linejoin:miter;stroke-opacity:1"/></clipPath><radialGradient id="radialGradient1405" cx="110.859" cy="89.489" r="9.129" fx="110.859" fy="89.489" gradientTransform="matrix(1.1982102,-0.91742411,0.58569335,0.7649502,-76.446464,123.77286)" gradientUnits="userSpaceOnUse" xlink:href="#linearGradient1373"/><radialGradient id="radialGradient1415" cx="-10.04" cy="66.39" r="28.887" fx="-10.04" fy="66.39" gradientTransform="matrix(0.90655014,-0.33099034,0.16869241,0.46203201,88.140435,37.098784)" gradientUnits="userSpaceOnUse" xlink:href="#linearGradient1373"/><radialGradient id="radialGradient1425" cx="-2.421" cy="76.175" r="8.062" fx="-2.421" fy="76.175" gradientTransform="matrix(0.4136342,-4.2259484,1.0559761,0.10335852,19.807644,63.68623)" gradientUnits="userSpaceOnUse" xlink:href="#linearGradient1373"/><radialGradient id="radialGradient1481" cx="-22.43" cy="56.866" r="7.445" fx="-22.43" fy="56.866" gradientTransform="matrix(1.1013267,-0.67853627,0.2926718,0.4750332,85.649357,16.987336)" gradientUnits="userSpaceOnUse" xlink:href="#linearGradient1373"/><radialGradient id="radialGradient1491" cx="17.039" cy="55.303" r="7.445" fx="17.039" fy="55.303" gradientTransform="matrix(1.2313189,-0.68940382,0.29051197,0.51887276,80.722997,40.882085)" gradientUnits="userSpaceOnUse" xlink:href="#linearGradient1373"/><linearGradient id="linearGradient1507" x1="-92.248" x2="-87.949" y1="54.567" y2="54.567" gradientTransform="matrix(1.0244176,0,0,1.0244176,37.076943,93.521235)" gradientUnits="userSpaceOnUse" xlink:href="#linearGradient1505"/><radialGradient id="radialGradient1565" cx="25.788" cy="101.752" r="11.674" fx="25.788" fy="101.752" gradientTransform="matrix(1.3445657,-5.1842715e-8,2.6914248e-8,0.69803393,92.300735,35.889228)" gradientUnits="userSpaceOnUse" xlink:href="#linearGradient1577"/></defs><metadata id="metadata5"/><g id="layer1" transform="translate(-61.094132,-39.697672)"><ellipse style="opacity:1;fill:#fff;fill-opacity:1;stroke:#000014;stroke-width:1.58749998;stroke-linecap:square;stroke-miterlimit:4;stroke-dasharray:none;stroke-opacity:1" id="path968" cx="102.241" cy="81.323" rx="38.024" ry="38.025"/><circle id="circle1276" cx="114.765" cy="76.492" r="8.894" style="opacity:1;fill:#3298ff;fill-opacity:1;stroke:none;stroke-width:3.00000024;stroke-linecap:square;stroke-miterlimit:4;stroke-dasharray:none;stroke-opacity:1"/><path style="fill:#000;fill-opacity:1;stroke:#000;stroke-width:.26458332px;stroke-linecap:butt;stroke-linejoin:miter;stroke-opacity:1" id="path937" d="m 114.79272,82.456162 c 0,0 -2.38649,-6.008972 0,-11.919377 2.26165,6.168096 0,11.919377 0,11.919377 z"/><circle style="opacity:1;fill:#00ff7f;fill-opacity:1;stroke:none;stroke-width:3.00000024;stroke-linecap:square;stroke-miterlimit:4;stroke-dasharray:none;stroke-opacity:1" id="path1227" cx="89.309" cy="76.492" r="8.894"/><path style="fill:#000;fill-opacity:1;stroke:#000;stroke-width:.26458332px;stroke-linecap:butt;stroke-linejoin:miter;stroke-opacity:1" id="path933" d="m 89.336699,82.456162 c 0,0 -2.3865,-6.008972 0,-11.919377 2.261651,6.168096 0,11.919377 0,11.919377 z"/><circle id="circle1256" cx="89.309" cy="76.492" r="8.894" style="opacity:1;fill:url(#radialGradient1264);fill-opacity:1;stroke:none;stroke-width:3.00000024;stroke-linecap:square;stroke-miterlimit:4;stroke-dasharray:none;stroke-opacity:1"/><circle style="opacity:1;fill:url(#radialGradient1274);fill-opacity:1;stroke:none;stroke-width:3.00000024;stroke-linecap:square;stroke-miterlimit:4;stroke-dasharray:none;stroke-opacity:1" id="circle1272" cx="114.765" cy="76.492" r="8.894"/><path style="fill:url(#radialGradient1415);fill-opacity:1;stroke:none;stroke-width:.26499999;stroke-linecap:butt;stroke-linejoin:miter;stroke-miterlimit:4;stroke-dasharray:none;stroke-opacity:1" id="path815" d="m 102.08559,61.205455 v 0.0027 c -11.114236,0.057 -30.188432,3.412543 -29.279093,15.107516 1.022502,13.150339 7.851614,10.961362 15.129751,14.550077 7.278137,3.588713 -8.719499,20.478552 14.295442,20.478632 23.01495,-8e-5 7.01784,-16.889919 14.29598,-20.478632 7.27815,-3.588715 14.10672,-1.399738 15.12923,-14.550077 0.90934,-11.694988 -18.16433,-15.05052 -29.27857,-15.107516 v -0.0027 c -0.0476,0 -0.0982,9.88e-4 -0.14611,9.88e-4 -0.0481,-1.23e-4 -0.0989,-9.88e-4 -0.14663,-9.88e-4 z M 81.457666,72.748109 97.14062,74.907462 C 87.892743,93.077651 81.457666,72.748109 81.457666,72.748109 Z m 41.548064,0 c 0,0 -6.43508,20.329542 -15.68296,2.159353 z"/><path style="fill:#f0f;fill-opacity:1;stroke:none;stroke-width:.26458329px;stroke-linecap:butt;stroke-linejoin:miter;stroke-opacity:1" id="path958" d="m 64.410189,84.56765 c 26.47786,21.25412 57.294831,22.50486 57.294831,22.50486 0,0 -23.486404,-20.079123 -57.294831,-22.50486 z"/><ellipse id="circle1305" cx="107.078" cy="59.077" clip-path="url(#clipPath1311)" rx="36.254" ry="5.697" transform="matrix(0.97048451,0.32801086,-0.23764666,0.99647148,-2.4978177,-0.35944167)" style="opacity:1;fill:url(#radialGradient1307);fill-opacity:1;stroke:none;stroke-width:2.9346807;stroke-linecap:square;stroke-miterlimit:4;stroke-dasharray:none;stroke-opacity:1"/><path id="path1315" d="m 64.410189,84.56765 c 26.47786,21.25412 57.294831,22.50486 57.294831,22.50486 0,0 -23.486404,-20.079123 -57.294831,-22.50486 z" style="fill:none;fill-opacity:1;stroke:none;stroke-width:.26458329px;stroke-linecap:butt;stroke-linejoin:miter;stroke-opacity:1"/><rect style="opacity:1;fill:url(#linearGradient1507);fill-opacity:1;stroke:none;stroke-width:.26458392;stroke-miterlimit:4;stroke-dasharray:none;stroke-opacity:1" id="rect844" width="4.404" height="10.882" x="-57.424" y="143.98" transform="matrix(0.36280836,-0.93186378,0.93077268,0.36559845,0,0)"/><path style="fill:#000;fill-opacity:1;stroke:none;stroke-width:.26458329px;stroke-linecap:butt;stroke-linejoin:miter;stroke-opacity:1" id="path840" d="m 127.54043,103.97637 c -1.71952,-0.0334 -3.46712,0.31926 -5.34677,0.97936 l -1.59714,4.10113 -0.0222,-0.009 c 6.7879,12.03473 8.97795,0.69473 23.91752,6.75016 -7.16869,-8.38054 -11.94592,-11.72435 -16.95136,-11.82164 z"/><path style="fill:url(#radialGradient1375);fill-opacity:1;stroke:none;stroke-width:.25827682px;stroke-linecap:butt;stroke-linejoin:miter;stroke-opacity:1" id="path823" d="m 97.53066,83.331851 c -5.723509,-0.0022 -13.433518,1.291957 -13.433518,11.681562 0,13.852817 18.135828,1.99869 18.135828,1.9987 0,-1e-5 18.13583,11.854117 18.13583,-1.9987 0,-10.389605 -7.71002,-11.683793 -13.43352,-11.681562 -1.90784,6.21e-4 -3.59504,0.146231 -4.70231,0.146231 -1.10728,0 -2.794475,-0.14547 -4.70231,-0.146231 z" clip-path="url(#clipPath1365)" transform="matrix(1.0244176,0,0,1.0244176,-2.4978177,-0.35944137)"/><path style="fill:url(#radialGradient1481);fill-opacity:1;stroke:none;stroke-width:.26458332px;stroke-linecap:butt;stroke-linejoin:miter;stroke-opacity:1" id="path866" d="M 88.982912,62.630707 C 89.833556,53.329955 82.437209,54.415498 77.626341,57.333941 72.815474,60.252383 72.449896,64.92522 77.02082,67.589863 Z"/><path id="path851" d="m 87.218928,63.362006 c 0.601694,-6.568883 -4.630043,-5.80219 -8.032961,-3.740969 -3.402922,2.06122 -3.66151,5.361526 -0.428309,7.243495 z" style="fill:url(#radialGradient1329);fill-opacity:1;stroke:none;stroke-width:.26458332px;stroke-linecap:butt;stroke-linejoin:miter;stroke-opacity:1"/><path id="path935" d="m 114.79272,82.456162 c 0,0 -2.38649,-6.008972 0,-11.919377 2.26165,6.168096 0,11.919377 0,11.919377 z" style="fill:none;stroke:#000;stroke-width:.26458332px;stroke-linecap:butt;stroke-linejoin:miter;stroke-opacity:1"/><g id="g948" transform="matrix(1.7999307,0,0,1.2028443,-73.556613,-28.564862)" style="stroke-width:.53944993;stroke-miterlimit:4;stroke-dasharray:none"><path id="path939" d="M 89.871127,100.77406 C 82.327015,98.455445 71.590236,100.61074 71.590236,100.61074" style="fill:none;stroke:#000;stroke-width:.53944993;stroke-linecap:butt;stroke-linejoin:miter;stroke-miterlimit:4;stroke-dasharray:none;stroke-opacity:1"/><path id="path941" d="m 89.60674,102.18887 c -8.018675,-0.58966 -15.139367,1.93843 -15.139367,1.93843" style="fill:none;stroke:#000;stroke-width:.53944993;stroke-linecap:butt;stroke-linejoin:miter;stroke-miterlimit:4;stroke-dasharray:none;stroke-opacity:1"/><path id="path943" d="m 89.551418,103.97093 c -6.394812,0.042 -11.314212,2.6785 -11.314212,2.6785" style="fill:none;stroke:#000;stroke-width:.53944993;stroke-linecap:butt;stroke-linejoin:miter;stroke-miterlimit:4;stroke-dasharray:none;stroke-opacity:1"/></g><path id="path1349" d="m 97.53066,83.331851 c -5.723509,-0.0022 -13.433518,1.291957 -13.433518,11.681562 0,13.852817 18.135828,1.99869 18.135828,1.9987 0,-1e-5 18.13583,11.854117 18.13583,-1.9987 0,-10.389605 -7.71002,-11.683793 -13.43352,-11.681562 -1.90784,6.21e-4 -3.59504,0.146231 -4.70231,0.146231 -1.10728,0 -2.794475,-0.14547 -4.70231,-0.146231 z" clip-path="url(#clipPath1361)" transform="matrix(1.0244176,0,0,1.0244176,-2.4978177,-0.35944137)" style="fill:url(#radialGradient1405);fill-opacity:1;stroke:none;stroke-width:.25827682px;stroke-linecap:butt;stroke-linejoin:miter;stroke-opacity:1"/><g id="g956" transform="matrix(-1.7999307,0,0,1.2028443,278.14888,-28.564862)" style="stroke-width:.53944993;stroke-miterlimit:4;stroke-dasharray:none"><path style="fill:none;stroke:#000;stroke-width:.53944993;stroke-linecap:butt;stroke-linejoin:miter;stroke-miterlimit:4;stroke-dasharray:none;stroke-opacity:1" id="path950" d="M 89.871127,100.77406 C 82.327015,98.455445 71.590236,100.61074 71.590236,100.61074"/><path style="fill:none;stroke:#000;stroke-width:.53944993;stroke-linecap:butt;stroke-linejoin:miter;stroke-miterlimit:4;stroke-dasharray:none;stroke-opacity:1" id="path952" d="m 89.60674,102.18887 c -8.018675,-0.58966 -15.139367,1.93843 -15.139367,1.93843"/><path style="fill:none;stroke:#000;stroke-width:.53944993;stroke-linecap:butt;stroke-linejoin:miter;stroke-miterlimit:4;stroke-dasharray:none;stroke-opacity:1" id="path954" d="m 89.551418,103.97093 c -6.394812,0.042 -11.314212,2.6785 -11.314212,2.6785"/></g><path id="path1317" d="m 102.23169,67.958787 c 0,0 -8.615129,15.268425 -8.247248,17.399742 -0.0078,-0.04516 -0.0059,-0.104251 -0.0058,-0.160932 1.172974,-0.144464 2.340023,-0.191005 3.435692,-0.190577 h 5.28e-4 c 1.954421,7.81e-4 3.683068,0.149814 4.817378,0.149814 1.13432,0 2.86243,-0.149033 4.81685,-0.149814 1.09585,-4.28e-4 2.26305,0.04606 3.43621,0.190577 0,0.05668 8.2e-4,0.115777 -0.006,0.160932 0.36766,-2.131317 -8.24746,-17.399742 -8.24746,-17.399742 z m -7.992085,18.064648 c 0.08849,0.161024 0.197072,0.33009 0.322393,0.50503 -0.125321,-0.17494 -0.233902,-0.344006 -0.322393,-0.50503 z" style="fill:url(#radialGradient1425);fill-opacity:1;stroke:none;stroke-width:.26458332px;stroke-linecap:butt;stroke-linejoin:miter;stroke-opacity:1"/><path style="fill:#7f7f7f;fill-opacity:1;stroke:#000;stroke-width:.26458332px;stroke-linecap:butt;stroke-linejoin:miter;stroke-opacity:1" id="path867" d="m 97.414305,85.007173 c -1.095668,-4.26e-4 -2.262591,0.04574 -3.435564,0.190205 -1.06e-4,0.05669 -0.0022,0.115834 0.0056,0.160991 0.36788,2.13132 6.849809,6.99223 8.247099,6.99223 1.3973,0 7.87984,-4.86091 8.24774,-6.99223 0.007,-0.04515 0.006,-0.104311 0.006,-0.160991 -1.17318,-0.144522 -2.34034,-0.190631 -3.43619,-0.190205 -1.95441,7.81e-4 -3.68281,0.149802 -4.81713,0.149802 -1.1343,0 -2.86271,-0.149021 -4.81713,-0.149802 z"/><ellipse id="circle1278" cx="101.933" cy="85.711" clip-path="url(#clipPath1381)" rx="9.376" ry="5.399" transform="matrix(1.0244176,0,0,1.0244176,-2.4978177,-0.35944137)" style="opacity:1;fill:url(#radialGradient1280);fill-opacity:1;stroke:none;stroke-width:2.9284935;stroke-linecap:square;stroke-miterlimit:4;stroke-dasharray:none;stroke-opacity:1"/><path style="fill:#00ff7f;fill-opacity:1;stroke:none;stroke-width:.26458332px;stroke-linecap:butt;stroke-linejoin:miter;stroke-opacity:1" id="path882" d="m 126.43935,106.03785 c -2.60424,-0.23696 3.62346,3.09808 2.60686,4.61457 -1.01658,1.51647 -0.60947,-0.47548 -4.0306,0.35254 -0.69429,0.16804 -1.51268,0.60652 -2.37282,1.1866 5.34409,6.63482 8.53005,-1.79207 21.84891,3.60645 -2.75713,-3.22321 -5.15974,-5.69937 -7.35837,-7.53425 -5.45345,4.53762 -7.7839,-1.71834 -10.69398,-2.22591 z"/><path id="path1337" d="m 115.48057,62.630707 c -0.85065,-9.300752 6.54571,-8.215209 11.35658,-5.296766 4.81086,2.918442 5.17645,7.591279 0.60552,10.255922 z" style="fill:url(#radialGradient1491);fill-opacity:1;stroke:none;stroke-width:.26458332px;stroke-linecap:butt;stroke-linejoin:miter;stroke-opacity:1"/><path style="fill:url(#radialGradient1343);fill-opacity:1;stroke:none;stroke-width:.26458332px;stroke-linecap:butt;stroke-linejoin:miter;stroke-opacity:1" id="path1339" d="m 117.24455,63.362006 c -0.60169,-6.568883 4.63006,-5.80219 8.03298,-3.740969 3.40292,2.06122 3.6615,5.361526 0.42831,7.243495 z"/><path id="path1557" d="m 127.54043,103.97637 c -1.71952,-0.0334 -3.46712,0.31926 -5.34677,0.97936 l -1.59714,4.10113 -0.0222,-0.009 c 6.7879,12.03473 8.97795,0.69473 23.91752,6.75016 -7.16869,-8.38054 -11.94592,-11.72435 -16.95136,-11.82164 z" style="fill:url(#radialGradient1565);fill-opacity:1;stroke:none;stroke-width:.26458329px;stroke-linecap:butt;stroke-linejoin:miter;stroke-opacity:1"/></g></svg>